<?xml version="1.0" encoding="UTF-8" standalone="no"?>
<svg
   width="400.4967"
   height="399.56839"
   version="1.1"
   id="svg9"
   xmlns="http://www.w3.org/2000/svg"
   xmlns:svg="http://www.w3.org/2000/svg">
  <defs
     id="defs2">
    <linearGradient
       id="gradient_0"
       gradientUnits="userSpaceOnUse"
       x1="239.56424"
       y1="148.85268"
       x2="159.24788"
       y2="287.74573"
       gradientTransform="matrix(0.8,0,0,0.8,-57.112896,-57.051167)">
      <stop
         offset="0"
         stop-color="#9DFFB8"
         id="stop1" />
      <stop
         offset="1"
         stop-color="#6EFDEF"
         id="stop2" />
    </linearGradient>
  </defs>
  <rect
     style="display:none;fill:#ffffff;stroke-width:4.53055;stroke-linejoin:round;paint-order:stroke fill markers"
     id="rect9"
     width="399.56839"
     height="399.56839"
     x="0.6003685"
     y="0" />
  <path
     fill="url(#gradient_0)"
     d="m 202.3823,102.68723 c -2.492,-2.859997 -13.48,-2.5016 -16.8208,-2.3448 -18.6488,0.8784 -37.7336,6.2104 -54.1104,15.1984 l -14.6856,8.6488 c -14.3168,8.1224 -29.915996,14.2528 -46.021596,17.688 l -9.5464,1.6464 c -11.5896,2.3976 -41.76928,0.5808 -52.28472,-5.92 -1.6552,-1.0232 -3.53568,-2.6368 -5.45624,-3.0056 l -0.42144,-0.0752 c -5.91976,-1.1096 0.60344,-4.6792 2.29032,-5.5472 l 12.68528,-6.1872 98.473196,-53.332797 c 11.8384,-6.1936 7.812,-5.3856 19.3896,0.1264 l 56.6552,26.9008 c 4.24,1.9608 8.5848,3.601597 12.7224,5.791197 -0.9096,0.7064 -1.8056,0.7208 -2.8688,0.4128 z"
     id="path2"
     style="fill:url(#gradient_0);stroke-width:0.8" />
  <path
     fill="#19469b"
     d="m 372.5999,215.66483 22.9912,10.3032 c 1.6968,0.7488 3.5712,1.5216 4.9056,2.8496 l -112.7304,65.7576 c -3.8208,2.34 -7.8536,5.4424 -12,7.0856 L 9.756704,174.23923 c -1.10368,-0.5472 -10.45591997,-3.2816 -6.73112,-4.9616 3.00424,-1.3552 6.30776,-2.2232 9.3724,-3.5016 5.63664,-2.3512 11.22032,-5.2928 17.08032,-7.0104 2.4304,0.7744 4.6608,2.0656 6.9576,3.1576 l 57.4776,28.0912 163.480796,77.372 8.9928,3.8152 c 1.9392,0.8048 3.9224,2.0344 6.0664,1.8168 l 0.0648,-0.0712 c 1.2528,-0.6112 2.6568,-0.9816 3.9352,-1.6224 l 45.3768,-25.756 47.9352,-29.2336 c 0.9408,-0.5232 1.764,-0.6848 2.8344,-0.6704 z"
     id="path3"
     style="stroke-width:0.8" />
  <path
     fill="#19469b"
     d="m 25.313504,190.44403 c 6.9248,2.1256 13.7776,6.0768 20.3288,9.192 L 266.5703,305.16643 c 10.1328,5.044 7.9984,5.296 17.8016,-0.5088 l 81.4552,-47.9848 c 2.3688,-1.38 4.6592,-2.8784 7.1144,-4.1064 6.2584,1.8688 12.3816,5.1248 18.3904,7.7168 l 5.5528,2.3528 c 4.7112,2.0288 4.0216,2.5848 0.0376,4.7624 l -21.3856,12.1712 -58.1128,33.9528 c -4.66,2.7256 -37.548,22.4664 -39.8928,22.6632 -1.8352,0.1536 -17.028,-7.7928 -19.8056,-9.132 L 3.803024,206.42643 c -8.50016,-3.9072 -0.70128,-4.9216 3.58408,-7.0216 z"
     id="path4"
     style="stroke-width:0.8" />
  <path
     fill="#4bcde9"
     d="m 205.2511,102.27443 58.1648,26.7552 c 9.1672,2.7848 17.648,7.0704 26.2984,11.116 l 25.1824,11.968 c 3.0536,1.1392 5.9752,2.672 8.9408,4.0232 l 71.9472,32.604 c 1.2224,0.5896 2.6744,1.2064 3.6024,2.208 l -0.2056,0.3752 c -3.168,0.3608 -6.5656,-0.912 -9.4984,-2.0016 l -0.0368,0.836 c 3.5864,1.4472 6.5728,2.552 9.2592,5.4592 -7.364,-0.6312 -13.8784,-3.8536 -20.6624,-6.5176 -33.0968,-12.996 -49.4128,-9.6688 -80.0304,8.6072 -18.7584,11.1968 -35.1288,21.3216 -57.1152,24.8088 -27.3616,4.34 -51.6184,-1.832 -76.9608,-10.8264 -4.8808,-1.7328 -9.9,-3.1944 -14.6888,-5.16 l -0.2928,0.7944 c 3.2512,1.8032 6.8496,3.0208 10.22,4.5936 18.164,8.472 37.024,16.756 57.2624,18.2072 l 12.0688,0.2952 c 21.0192,-0.1672 42.9144,-8.232 60.7824,-18.7872 33.528,-19.8064 41.5384,-28.6536 83.8088,-18.8032 l 12.8136,3.2296 c 2.588,0.7624 5.0808,1.4064 7.2856,3.0168 l 0.9576,0.8728 c -0.2856,1.3688 -4.3544,2.5088 -5.6176,3.0768 -6.9152,3.108 -14.7192,5.7144 -20.244,11.084 l 4.1072,1.5552 c -1.0704,-0.0144 -1.8936,0.1472 -2.8344,0.6704 l -47.9352,29.2336 -45.3768,25.756 c -1.2784,0.6408 -2.6824,1.0112 -3.9352,1.6224 l -0.0648,0.0712 c -0.3728,-1.6 -1.2256,-2.5616 -2.2896,-3.752 -1.28,-1.2384 -2.8896,-1.9272 -4.4232,-2.7944 l -61.544,-30.2728 -22.06,-10 -39.5128,-19.1896 c -6.5784,-3.196 -13.4456,-6.292 -19.7856,-9.936 L 22.472304,148.77683 c -2.98728,-1.1808 -5.93408,-3.096 -8.79272,-4.576 l -6.6548,-3.4008 c -1.92344,-0.94 -4.42128,-1.8032 -5.82552,-3.444 4.06528,1.1992 7.66872,3.4128 11.6508,4.6536 4.28904,1.3368 8.80912,1.7648 13.09144,3.2552 15.4856,3.8152 25.1952,6.3288 41.6288,4.064 l 5.3568,-0.9976 c 0.1808,-0.2856 5.1,-1.2656 5.8816,-1.456 8.3696,-2.036 16.892,-4.7624 24.708796,-8.3784 l 14.8688,-7.6712 0.3216,-0.2656 c 2.636,-1.9384 5.768,-3.6032 8.556,-5.3496 20.9272,-13.112 49.8056,-25.232797 75.1184,-22.5232 1.0632,0.308 1.9592,0.2936 2.8688,-0.4128 z"
     id="path5"
     style="stroke-width:0.8" />
  <path
     fill="#80e3ef"
     d="m 355.6031,172.49283 c 2.8928,0.6864 5.9376,3.2096 8.5544,4.636 l 21.1712,10.2888 c 1.2232,0.5464 3.3984,1.0712 4.3544,1.9048 l -0.0368,0.836 c -2.4976,-0.4064 -5.4888,-2.3688 -7.8112,-3.4752 l -26.9736,-13.7 z"
     id="path6"
     style="stroke-width:0.8" />
  <path
     fill="#61a8df"
     d="m 270.1639,269.26643 c 1.2504,-1.98 5.412,-3.6176 7.3816,-4.7736 l 90.0224,-55.7 16.5704,-8.3424 c 0.8608,-0.284 1.9472,-0.752 2.8272,-0.9008 l 0.2968,-0.0464 c 1.9112,-0.5672 4.1704,-0.444 6.1344,-0.4272 l 0.9576,0.8728 c -0.2856,1.3688 -4.3544,2.5088 -5.6176,3.0768 -6.9152,3.108 -14.7192,5.7144 -20.244,11.084 l 4.1072,1.5552 c -1.0704,-0.0144 -1.8936,0.1472 -2.8344,0.6704 l -47.9352,29.2336 -45.3768,25.756 c -1.2784,0.6408 -2.6824,1.0112 -3.9352,1.6224 l -0.0648,0.0712 c -0.3728,-1.6 -1.2256,-2.5616 -2.2896,-3.752 z"
     id="path7"
     style="stroke-width:0.8" />
  <path
     fill="#fefefe"
     d="m 155.5959,158.61603 c 2.6912,-0.7712 5.4656,-2.2688 7.9784,-3.5032 26.4992,-13.0152 38.7192,-26.3816 69.688,-30.1992 6.088,-0.7512 11.0184,-1.1952 16.9192,0.46 l 9.4896,3.2 -2.8152,0.1584 c -27.5232,0.007 -45.06,7.1048 -68.9488,21.3048 -16.6816,9.9168 -29.3192,16.8584 -48.356,21.048 -1.4928,0.328 -8.7936,1.3104 -9.5432,1.8112 -1.1824,0.006 -2.5536,0.1904 -3.7152,0.4112 -18.0056,3.4192 -46.455996,-2.4888 -63.050396,-11.4736 l 4.7208,0.168 c 1.8792,0.468 3.9104,0.572 5.828,0.928 l 21.2056,3.1456 c 16.726396,1.7696 45.415996,1.0536 60.599196,-7.4592 z"
     id="path8"
     style="stroke-width:0.8" />
  <path
     fill="#fefefe"
     d="m 115.7983,189.84403 c 31.5768,10.8672 67.4872,11.624 98.4024,-1.9024 16.332,-7.1464 30.4552,-18.4992 46.916,-25.3152 19.3944,-8.0296 34.3624,-8.9712 54.332,-5.3496 l 0.3104,0.1176 c 3.1072,1.1424 6.6208,1.6552 9.82,2.6952 8.8208,2.8664 21.6784,7.8752 30.024,12.4032 l -0.7416,0.4904 c -11.8504,-5.96 -45.1824,-9.944 -60.7248,-9.864 -31.2328,0.1608 -43.9408,15.6376 -68.8984,27.5776 -19.4904,9.3256 -39.8856,13.5064 -61.5352,13.6024 -3.66,0.016 -7.5392,0.1056 -11.1328,-0.6392 -0.056,-0.1816 -5.34,-1.0264 -5.9256,-1.152 -7.5712,-1.6192 -14.6584,-4.8328 -21.7984,-7.7176 -2.992,-1.968 -6.8304,-2.5072 -9.6688,-4.9088 z"
     id="path9"
     style="stroke-width:0.8" />
</svg>
